<svg id="SvgjsSvg1000" xmlns="http://www.w3.org/2000/svg" version="1.1" xmlns:xlink="http://www.w3.org/1999/xlink" xmlns:svgjs="http://svgjs.com/svgjs" width="121" height="85" viewBox="0 0 121 85"><title>Fill 1</title><desc>Created with Avocode.</desc><defs id="SvgjsDefs1001"></defs><path id="SvgjsPath1007" d="M733.57 53.59L747.1 53.580000000000005L747.11 67.13000000000001L751.6800000000001 71.70000000000002L751.6600000000001 49.000000000000014L729.0000000000001 49.01000000000001Z " fill="#3f3e3f" fill-opacity="1" transform="matrix(1,0,0,1,-639,-34)"></path><path id="SvgjsPath1008" d="M747.08 85.58L747.09 99.13L733.5600000000001 99.14L729.0000000000001 103.71000000000001L751.6600000000001 103.7L751.6400000000001 81Z " fill="#3f3e3f" fill-opacity="1" transform="matrix(1,0,0,1,-639,-34)"></path><path id="SvgjsPath1009" d="M717.15 34L675 76.27000000000001L717.2 118.48000000000002L759.36 76.22000000000003ZM681.46 76.27L717.1500000000001 40.47L752.9000000000001 76.22999999999999L717.2 112.01999999999998Z " fill="#3f3e3f" fill-opacity="1" transform="matrix(1,0,0,1,-639,-34)"></path><path id="SvgjsPath1010" d="M664.01 76.03L664 77.74L713.58 77.71L713.58 76Z " fill="#3f3e3f" fill-opacity="1" transform="matrix(1,0,0,1,-639,-34)"></path><path id="SvgjsPath1011" d="M664 75.03L664 77.52L714.35 77.5L714.35 75ZM664.78 75.81L713.5699999999999 75.78L713.5699999999999 76.71000000000001L664.78 76.74000000000001Z " fill="#3f3e3f" fill-opacity="1" transform="matrix(1,0,0,1,-639,-34)"></path><path id="SvgjsPath1012" d="M666.57 81.29L662.0100000000001 81.30000000000001L662.0000000000001 71.01000000000002L666.5700000000002 71.00000000000001Z " fill="#3f3e3f" fill-opacity="1" transform="matrix(1,0,0,1,-639,-34)"></path><path id="SvgjsPath1013" d="M643 76.01L643 77.72L657.28 77.71L657.27 76Z " fill="#3f3e3f" fill-opacity="1" transform="matrix(1,0,0,1,-639,-34)"></path><path id="SvgjsPath1014" d="M642 75.01L642 77.51L657.06 77.5L657.05 75ZM642.78 75.79L656.27 75.78L656.27 76.71000000000001L642.78 76.73Z " fill="#3f3e3f" fill-opacity="1" transform="matrix(1,0,0,1,-639,-34)"></path><path id="SvgjsPath1015" d="M644.89 83.21L655.91 80.96L655.9 72.97L644.9599999999999 70.76L650.6999999999999 76.81ZM657.62 82.36L640.1 85.94L648.36 76.84L640 68L657.61 71.57Z " fill="#3f3e3f" fill-opacity="1" transform="matrix(1,0,0,1,-639,-34)"></path><path id="SvgjsPath1016" d="M641.26 68.26L649.02 76.46000000000001L641.3199999999999 84.95L657.3599999999999 81.67L657.3499999999999 71.52ZM643.93 83.46L650.29 76.44999999999999L643.9599999999999 69.75999999999999L656.42 72.27999999999999L656.43 80.90999999999998ZM646.23 71.01L651.36 76.44L646.11 82.22L655.65 80.27L655.64 72.92ZM639.14 86.19L647.96 76.47L639 67L658.13 70.88L658.14 82.31Z " fill="#3f3e3f" fill-opacity="1" transform="matrix(1,0,0,1,-639,-34)"></path><path id="SvgjsPath1017" d="M717.77 72C720.41 72 722.55 74.14 722.55 76.78C722.55 79.42 720.41 81.56 717.78 81.56C715.14 81.57000000000001 713 79.43 713 76.79C713 74.14 715.13 72 717.77 72Z " fill="#3f3e3f" fill-opacity="1" transform="matrix(1,0,0,1,-639,-34)"></path></svg>